# xmcd CD database file
#
# Track frame offsets:
#	150
#	13241
#	27291
#	29032
#	41281
#	60222
#	62035
#	73265
#	87909
#	100130
#	110255
#	114631
#	119469
#	139551
#	149910
#	151699
#
# Disc length: 2181 seconds
#
# Revision: 0
# Processed by: cddbd v1.5.2PL0 Copyright (c) Steve Scherf et al.
# Submitted via: CDex 1.70beta2
#
DISCID=dd088310
DTITLE=戟 - PCP
DYEAR=00
DGENRE=Blues
TTITLE0=nonsense poetry
TTITLE1=martin
TTITLE2=organ organ no.1
TTITLE3=patronage
TTITLE4=sometimes i just can't remember all the things we did together
TTITLE5=bonbon bonbon
TTITLE6=skinner's mouse
TTITLE7=沒有介懷
TTITLE8=bus bus
TTITLE9=fake japanese
TTITLE10=de vez en cuando me pregunto porque
TTITLE11=hey hey
TTITLE12=i know
TTITLE13=jim
TTITLE14=organ organ no.2
TTITLE15=跳飛機
EXTD=YEAR: 00
EXTT0=
EXTT1=
EXTT2=
EXTT3=
EXTT4=
EXTT5=
EXTT6=
EXTT7=
EXTT8=
EXTT9=
EXTT10=
EXTT11=
EXTT12=
EXTT13=
EXTT14=
EXTT15=
PLAYORDER=
